<svg width="48" height="34" viewBox="0 0 48 34" fill="none" xmlns="http://www.w3.org/2000/svg">
<path d="M14.1293 21L15.5611 12.2727H16.5838L15.152 21H14.1293ZM10.179 18.6648L10.3452 17.642H16.9588L16.7926 18.6648H10.179ZM11.0611 21L12.4929 12.2727H13.5156L12.0838 21H11.0611ZM10.6861 15.6307L10.8523 14.608H17.4659L17.2997 15.6307H10.6861Z" fill="#171C26"/>
<path d="M28.3904 22.512C28.1903 22.7622 27.8097 22.7622 27.6096 22.512L24.6499 18.8123C24.388 18.485 24.6211 18 25.0403 18H30.9597C31.3789 18 31.612 18.485 31.3501 18.8123L28.3904 22.512Z" fill="#A1A9B8"/>
<path d="M28.3904 11.488C28.1903 11.2378 27.8097 11.2378 27.6096 11.488L24.6499 15.1877C24.388 15.515 24.6211 16 25.0403 16H30.9597C31.3789 16 31.612 15.515 31.3501 15.1877L28.3904 11.488Z" fill="#464F60"/>
</svg>
